<svg width="102" height="20" viewBox="0 0 102 20" fill="none" xmlns="http://www.w3.org/2000/svg">
<path fill-rule="evenodd" clip-rule="evenodd" d="M12.7177 9.97822C14.0186 11.28 14.0184 13.39 12.7169 14.6915C11.4154 15.993 9.30542 15.9933 8.00361 14.6923C6.7018 15.9933 4.59182 15.993 3.29032 14.6915C1.98883 13.39 1.98857 11.28 3.28957 9.97822L3.28881 9.97747C1.98706 8.67572 1.98706 6.56517 3.28881 5.26342C4.59056 3.96167 6.70111 3.96167 8.00285 5.26342L8.00361 5.26418L8.00437 5.26342C9.30612 3.96167 11.4167 3.96167 12.7184 5.26342C14.0202 6.56517 14.0202 8.67572 12.7184 9.97747L12.7177 9.97822Z" fill="#10B981"/>
<path d="M27.8506 9.0918H25.9063C25.8708 8.84026 25.7983 8.61683 25.6888 8.42152C25.5793 8.22325 25.4388 8.05457 25.2671 7.91548C25.0955 7.7764 24.8972 7.66986 24.6723 7.59588C24.4504 7.5219 24.2092 7.48491 23.9488 7.48491C23.4782 7.48491 23.0684 7.6018 22.7192 7.83558C22.37 8.06641 22.0992 8.40376 21.9068 8.84766C21.7145 9.28859 21.6183 9.82422 21.6183 10.4545C21.6183 11.1026 21.7145 11.6471 21.9068 12.0881C22.1022 12.529 22.3744 12.8619 22.7236 13.0868C23.0728 13.3117 23.4767 13.4242 23.9354 13.4242C24.1929 13.4242 24.4311 13.3902 24.6501 13.3221C24.872 13.254 25.0688 13.1549 25.2405 13.0247C25.4121 12.8915 25.5542 12.7302 25.6666 12.5408C25.782 12.3514 25.8619 12.1354 25.9063 11.8928L27.8506 11.9016C27.8003 12.3189 27.6745 12.7214 27.4733 13.109C27.275 13.4937 27.0072 13.8385 26.6698 14.1433C26.3354 14.4451 25.9359 14.6848 25.4713 14.8624C25.0097 15.037 24.4873 15.1243 23.9044 15.1243C23.0935 15.1243 22.3685 14.9408 21.7293 14.5739C21.093 14.2069 20.59 13.6757 20.2201 12.9803C19.8531 12.2849 19.6696 11.4429 19.6696 10.4545C19.6696 9.46319 19.8561 8.61979 20.2289 7.92436C20.6018 7.22893 21.1078 6.69922 21.747 6.33523C22.3863 5.96828 23.1054 5.7848 23.9044 5.7848C24.4311 5.7848 24.9194 5.85878 25.3692 6.00675C25.822 6.15471 26.223 6.37074 26.5722 6.65483C26.9213 6.93596 27.2054 7.28072 27.4244 7.6891C27.6464 8.09748 27.7884 8.56504 27.8506 9.0918ZM37.5829 10.4545C37.5829 11.4459 37.395 12.2893 37.0192 12.9847C36.6463 13.6802 36.1373 14.2114 35.4922 14.5783C34.85 14.9423 34.1279 15.1243 33.326 15.1243C32.5181 15.1243 31.7931 14.9408 31.1509 14.5739C30.5087 14.2069 30.0012 13.6757 29.6284 12.9803C29.2555 12.2849 29.069 11.4429 29.069 10.4545C29.069 9.46319 29.2555 8.61979 29.6284 7.92436C30.0012 7.22893 30.5087 6.69922 31.1509 6.33523C31.7931 5.96828 32.5181 5.7848 33.326 5.7848C34.1279 5.7848 34.85 5.96828 35.4922 6.33523C36.1373 6.69922 36.6463 7.22893 37.0192 7.92436C37.395 8.61979 37.5829 9.46319 37.5829 10.4545ZM35.6342 10.4545C35.6342 9.81238 35.538 9.27083 35.3457 8.8299C35.1563 8.38897 34.8885 8.05457 34.5422 7.8267C34.196 7.59884 33.7906 7.48491 33.326 7.48491C32.8614 7.48491 32.4559 7.59884 32.1097 7.8267C31.7635 8.05457 31.4942 8.38897 31.3018 8.8299C31.1124 9.27083 31.0177 9.81238 31.0177 10.4545C31.0177 11.0967 31.1124 11.6383 31.3018 12.0792C31.4942 12.5201 31.7635 12.8545 32.1097 13.0824C32.4559 13.3103 32.8614 13.4242 33.326 13.4242C33.7906 13.4242 34.196 13.3103 34.5422 13.0824C34.8885 12.8545 35.1563 12.5201 35.3457 12.0792C35.538 11.6383 35.6342 11.0967 35.6342 10.4545ZM40.7112 15L38.11 5.90909H40.2096L41.7144 12.2257H41.7899L43.45 5.90909H45.2478L46.9035 12.239H46.9834L48.4882 5.90909H50.5878L47.9866 15H46.1134L44.3822 9.05629H44.3112L42.5845 15H40.7112ZM59.4579 10.4545C59.4579 11.4459 59.27 12.2893 58.8942 12.9847C58.5213 13.6802 58.0123 14.2114 57.3672 14.5783C56.725 14.9423 56.0029 15.1243 55.201 15.1243C54.3931 15.1243 53.6681 14.9408 53.0259 14.5739C52.3837 14.2069 51.8762 13.6757 51.5034 12.9803C51.1305 12.2849 50.944 11.4429 50.944 10.4545C50.944 9.46319 51.1305 8.61979 51.5034 7.92436C51.8762 7.22893 52.3837 6.69922 53.0259 6.33523C53.6681 5.96828 54.3931 5.7848 55.201 5.7848C56.0029 5.7848 56.725 5.96828 57.3672 6.33523C58.0123 6.69922 58.5213 7.22893 58.8942 7.92436C59.27 8.61979 59.4579 9.46319 59.4579 10.4545ZM57.5092 10.4545C57.5092 9.81238 57.413 9.27083 57.2207 8.8299C57.0313 8.38897 56.7635 8.05457 56.4172 7.8267C56.071 7.59884 55.6656 7.48491 55.201 7.48491C54.7364 7.48491 54.3309 7.59884 53.9847 7.8267C53.6385 8.05457 53.3692 8.38897 53.1768 8.8299C52.9874 9.27083 52.8927 9.81238 52.8927 10.4545C52.8927 11.0967 52.9874 11.6383 53.1768 12.0792C53.3692 12.5201 53.6385 12.8545 53.9847 13.0824C54.3309 13.3103 54.7364 13.4242 55.201 13.4242C55.6656 13.4242 56.071 13.3103 56.4172 13.0824C56.7635 12.8545 57.0313 12.5201 57.2207 12.0792C57.413 11.6383 57.5092 11.0967 57.5092 10.4545ZM60.8817 15V5.90909H64.4683C65.1549 5.90909 65.7408 6.0319 66.2261 6.27752C66.7144 6.52018 67.0858 6.86494 67.3403 7.31179C67.5978 7.75568 67.7265 8.27799 67.7265 8.87873C67.7265 9.48242 67.5963 10.0018 67.3359 10.4368C67.0755 10.8688 66.6981 11.2003 66.2039 11.4311C65.7127 11.6619 65.1179 11.7773 64.4195 11.7773H62.018V10.2326H64.1088C64.4757 10.2326 64.7805 10.1823 65.0232 10.0817C65.2659 9.98106 65.4464 9.83014 65.5647 9.62891C65.6861 9.42768 65.7467 9.17762 65.7467 8.87873C65.7467 8.57688 65.6861 8.32238 65.5647 8.11523C65.4464 7.90808 65.2644 7.75124 65.0188 7.64471C64.7761 7.53522 64.4698 7.48047 64.0999 7.48047H62.8037V15H60.8817ZM65.7911 10.8629L68.0505 15H65.9287L63.7182 10.8629H65.7911ZM69.0848 15V5.90909H71.0069V9.91744H71.1267L74.3982 5.90909H76.702L73.3284 9.97958L76.7419 15H74.4426L71.9523 11.2624L71.0069 12.4165V15H69.0848ZM77.703 15V5.90909H83.8287V7.49379H79.625V9.65998H83.5135V11.2447H79.625V13.4153H83.8464V15H77.703ZM85.3568 15V5.90909H88.9434C89.63 5.90909 90.2159 6.0319 90.7012 6.27752C91.1895 6.52018 91.5609 6.86494 91.8154 7.31179C92.0729 7.75568 92.2016 8.27799 92.2016 8.87873C92.2016 9.48242 92.0714 10.0018 91.811 10.4368C91.5506 10.8688 91.1732 11.2003 90.679 11.4311C90.1878 11.6619 89.593 11.7773 88.8946 11.7773H86.4931V10.2326H88.5839C88.9508 10.2326 89.2556 10.1823 89.4983 10.0817C89.741 9.98106 89.9215 9.83014 90.0398 9.62891C90.1612 9.42768 90.2218 9.17762 90.2218 8.87873C90.2218 8.57688 90.1612 8.32238 90.0398 8.11523C89.9215 7.90808 89.7395 7.75124 89.4939 7.64471C89.2512 7.53522 88.9449 7.48047 88.575 7.48047H87.2788V15H85.3568ZM90.2662 10.8629L92.5256 15H90.4038L88.1932 10.8629H90.2662ZM98.4915 8.52361C98.456 8.16554 98.3036 7.88737 98.0343 7.6891C97.765 7.49083 97.3996 7.39169 96.9379 7.39169C96.6242 7.39169 96.3594 7.43608 96.1434 7.52486C95.9273 7.61068 95.7616 7.73053 95.6462 7.88441C95.5337 8.03829 95.4775 8.21289 95.4775 8.4082C95.4716 8.57096 95.5056 8.71301 95.5796 8.83434C95.6566 8.95567 95.7616 9.06072 95.8948 9.1495C96.0279 9.23532 96.1818 9.31078 96.3564 9.37589C96.531 9.43803 96.7175 9.4913 96.9157 9.53569L97.7325 9.731C98.129 9.81978 98.493 9.93815 98.8245 10.0861C99.1559 10.2341 99.443 10.4161 99.6856 10.6321C99.9283 10.8481 100.116 11.1026 100.249 11.3956C100.385 11.6886 100.455 12.0244 100.458 12.4032C100.455 12.9596 100.313 13.4419 100.032 13.8503C99.7537 14.2557 99.3512 14.5709 98.8245 14.7958C98.3007 15.0178 97.6689 15.1287 96.929 15.1287C96.1951 15.1287 95.5559 15.0163 95.0114 14.7914C94.4699 14.5665 94.0467 14.2335 93.7419 13.7926C93.4401 13.3487 93.2817 12.7998 93.2669 12.1458H95.1268C95.1476 12.4506 95.2349 12.7051 95.3887 12.9093C95.5456 13.1105 95.7542 13.2629 96.0146 13.3665C96.278 13.4671 96.5754 13.5174 96.9068 13.5174C97.2324 13.5174 97.515 13.4701 97.7547 13.3754C97.9973 13.2807 98.1853 13.149 98.3184 12.9803C98.4516 12.8116 98.5182 12.6178 98.5182 12.3988C98.5182 12.1946 98.4575 12.023 98.3362 11.8839C98.2178 11.7448 98.0432 11.6264 97.8124 11.5288C97.5845 11.4311 97.3049 11.3423 96.9734 11.2624L95.9836 11.0138C95.2171 10.8274 94.6119 10.5359 94.168 10.1394C93.7241 9.74284 93.5037 9.20869 93.5066 8.53693C93.5037 7.98651 93.6502 7.50562 93.9461 7.09428C94.245 6.68294 94.6548 6.36186 95.1757 6.13104C95.6965 5.90021 96.2884 5.7848 96.9512 5.7848C97.626 5.7848 98.2149 5.90021 98.7179 6.13104C99.224 6.36186 99.6176 6.68294 99.8987 7.09428C100.18 7.50562 100.325 7.98207 100.334 8.52361H98.4915Z" fill="#10B981"/>
</svg>
