<svg width="16" height="16" viewBox="0 0 16 16" fill="none" xmlns="http://www.w3.org/2000/svg">
<path fill-rule="evenodd" clip-rule="evenodd" d="M9.90242 1.65566C8.88634 0.781446 7.38378 0.781447 6.3677 1.65566C5.92881 2.03328 5.3805 2.26039 4.80314 2.30372C3.46651 2.40404 2.40404 3.46651 2.30372 4.80314C2.26039 5.3805 2.03328 5.92881 1.65566 6.3677C0.781447 7.38378 0.781446 8.88634 1.65566 9.90242C2.03328 10.3413 2.26039 10.8896 2.30372 11.467C2.40404 12.8036 3.4665 13.8661 4.80314 13.9664C5.3805 14.0097 5.92881 14.2368 6.3677 14.6145C7.38378 15.4887 8.88634 15.4887 9.90242 14.6145C10.3413 14.2368 10.8896 14.0097 11.467 13.9664C12.8036 13.8661 13.8661 12.8036 13.9664 11.467C14.0097 10.8896 14.2368 10.3413 14.6145 9.90242C15.4887 8.88634 15.4887 7.38378 14.6145 6.3677C14.2368 5.92881 14.0097 5.3805 13.9664 4.80314C13.8661 3.4665 12.8036 2.40404 11.467 2.30372C10.8896 2.26039 10.3413 2.03328 9.90242 1.65566ZM11.6925 6.63679C11.9696 6.32891 11.9447 5.85469 11.6368 5.5776C11.3289 5.3005 10.8547 5.32546 10.5776 5.63334L7.46058 9.09671L5.61522 7.5589C5.29701 7.29373 4.82409 7.33672 4.55891 7.65493C4.29374 7.97314 4.33673 8.44606 4.65494 8.71123L6.90704 10.588C7.29929 10.9149 7.87977 10.8732 8.22134 10.4937L11.6925 6.63679Z" fill="#64748B"/>
</svg>
