<?xml version="1.0" standalone="no"?>
<!DOCTYPE svg PUBLIC "-//W3C//DTD SVG 20010904//EN"
 "http://www.w3.org/TR/2001/REC-SVG-20010904/DTD/svg10.dtd">
<svg version="1.0" xmlns="http://www.w3.org/2000/svg"
 width="41.000000pt" height="53.000000pt" viewBox="0 0 41.000000 53.000000"
 preserveAspectRatio="xMidYMid meet">

<g transform="translate(0.000000,53.000000) scale(0.100000,-0.100000)"
fill="#64748b" stroke="none">
<path d="M191 481 c-13 -23 -5 -31 69 -65 40 -19 57 -22 67 -14 28 23 14 45
-48 72 -72 31 -75 31 -88 7z"/>
<path d="M124 343 c-92 -199 -86 -177 -66 -230 20 -53 31 -56 96 -29 30 12 42
30 95 142 34 70 61 129 61 131 0 6 -127 63 -140 63 -6 0 -27 -35 -46 -77z"/>
</g>
</svg>
