<svg width="21" height="19" viewBox="0 0 21 19" fill="none" xmlns="http://www.w3.org/2000/svg">
<path d="M18.6923 6.49965C19.1679 6.49965 19.5881 6.68202 19.9528 7.04677C20.3176 7.41151 20.5 7.8317 20.5 8.30735V9.9227C20.5 10.0276 20.4865 10.1401 20.4596 10.2601C20.4326 10.38 20.4025 10.4919 20.3692 10.5958L17.5034 17.3584C17.3601 17.6782 17.1198 17.9483 16.7827 18.1688C16.4455 18.3893 16.0937 18.4996 15.7272 18.4996H5.21153V6.49965L11.0288 0.732372C11.2275 0.533656 11.4577 0.415064 11.7192 0.376597C11.9807 0.33813 12.2314 0.383006 12.4711 0.511222C12.7108 0.639422 12.8865 0.821465 12.998 1.05735C13.1096 1.29325 13.1333 1.53747 13.0692 1.79002L11.9923 6.49965H18.6923ZM6.7115 7.1381V16.9996H15.7307C15.8012 16.9996 15.8734 16.9804 15.9471 16.9419C16.0208 16.9035 16.0769 16.8393 16.1154 16.7496L19 9.99962V8.30735C19 8.2176 18.9711 8.14387 18.9134 8.08617C18.8557 8.02847 18.782 7.99962 18.6923 7.99962H10.0961L11.35 2.51885L6.7115 7.1381ZM2.3077 18.4996C1.81058 18.4996 1.38503 18.3226 1.03102 17.9686C0.677008 17.6146 0.5 17.189 0.5 16.6919V8.30735C0.5 7.81023 0.677008 7.38467 1.03102 7.03067C1.38503 6.67666 1.81058 6.49965 2.3077 6.49965H5.21153V7.99962H2.3077C2.21795 7.99962 2.14423 8.02847 2.08653 8.08617C2.02883 8.14387 1.99998 8.2176 1.99998 8.30735V16.6919C1.99998 16.7816 2.02883 16.8554 2.08653 16.9131C2.14423 16.9708 2.21795 16.9996 2.3077 16.9996H5.21153V18.4996H2.3077Z" fill="#9FA6B2"/>
</svg>
