<svg width="16" height="16" viewBox="0 0 16 16" fill="none" color="currentColor" xmlns="http://www.w3.org/2000/svg">
<path d="M3.55987 9.31157C3.41015 9.18016 3.29039 9.07475 3.2026 8.99739V8.95147L3.02687 8.77574C2.33306 8.08193 1.93594 7.16547 1.93594 6.2V6.07612C1.99741 4.2062 3.59447 2.66667 5.46927 2.66667C5.74755 2.66667 6.11676 2.76344 6.48481 2.96162C6.83214 3.14864 7.13701 3.40383 7.33945 3.68842C7.63394 4.31494 8.54174 4.30366 8.81413 3.65457C8.98187 3.36092 9.27586 3.0955 9.62818 2.89902C9.9958 2.694 10.3623 2.6 10.6026 2.6C12.5319 2.6 14.0743 4.12742 14.1359 6.07581V6.2C14.1359 7.24201 13.7325 8.14473 13.0638 8.75771L12.8693 8.93606V8.97957C12.7682 9.06525 12.6379 9.17766 12.486 9.30974C12.1488 9.6029 11.6974 9.99999 11.2059 10.4332C11.0482 10.5722 10.8863 10.7149 10.7227 10.8592C9.8665 11.6143 8.96196 12.4119 8.3486 12.9417C8.17207 13.0861 7.8998 13.0861 7.72327 12.9417C6.99106 12.3093 5.82846 11.2962 4.8391 10.4316C4.34348 9.9984 3.89174 9.60286 3.55987 9.31157Z" stroke="#64748B" stroke-width="1.2"/>
</svg>
