<svg width="32" height="32" viewBox="0 0 32 32" fill="none" xmlns="http://www.w3.org/2000/svg">
<circle cx="16" cy="16" r="16" fill="#334155"/>
<circle cx="16" cy="16" r="15.5" stroke="#F8FAFC" stroke-opacity="0.1"/>
<path d="M7.15372 19.1689C8.06678 24.0644 12.7756 27.2929 17.6711 26.3798C22.5666 25.4668 25.7951 20.758 24.882 15.8624C23.9689 10.9669 19.2601 7.73849 14.3646 8.65155C9.4691 9.5646 6.24067 14.2734 7.15372 19.1689Z" fill="#64748B"/>
<circle cx="2.25425" cy="2.25425" r="2.25425" transform="matrix(-0.983048 0.183347 0.183347 0.983048 8.97656 15.9326)" fill="#64748B"/>
<ellipse cx="2.25425" cy="2.25425" rx="2.25425" ry="2.25425" transform="matrix(-0.983048 0.183347 0.183347 0.983048 26.7422 15.9326)" fill="#64748B"/>
<path fill-rule="evenodd" clip-rule="evenodd" d="M6.97999 15.2481C8.32632 16.1748 10.0269 16.5601 11.7311 16.1775C13.4597 15.7893 14.8473 14.6883 15.6638 13.2448C16.9679 15.543 19.6283 16.8276 22.2975 16.2283C23.2573 16.0127 24.112 15.5774 24.8221 14.9858C24.7955 14.8317 24.7649 14.6775 24.7302 14.5232C23.6193 9.57595 18.7798 6.44993 13.9208 7.54101C10.1338 8.39139 7.45268 11.5525 6.97999 15.2481Z" fill="#1E293B"/>
<path fill-rule="evenodd" clip-rule="evenodd" d="M22.4983 10.2065L9.35545 10.0821C9.66706 7.54038 12.5183 5.56956 15.9699 5.60223C19.4215 5.63489 22.2349 7.65931 22.4983 10.2065Z" fill="#475569"/>
<rect x="7.16406" y="10.0625" width="17.525" height="2.19062" rx="0.730207" transform="rotate(0.542194 7.16406 10.0625)" fill="#475569"/>
<path d="M13.7605 7.20615C13.772 5.99636 14.762 5.02491 15.9718 5.03635C17.1816 5.0478 18.153 6.03781 18.1416 7.24761L18.1139 10.1683L13.7329 10.1268L13.7605 7.20615Z" fill="#334155"/>
</svg>
