<svg width="28" height="28" viewBox="0 0 28 28" fill="none" xmlns="http://www.w3.org/2000/svg">
<path d="M7.05845 19.999L5.2938 21.7637C4.90165 20.9794 4.47029 19.0579 5.88202 17.6462C7.29374 16.2345 8.82311 16.6658 9.41132 17.058L13.5289 12.9404L15.8817 15.2933L11.7642 19.4108C11.9603 19.803 12.1171 20.9402 11.176 22.3519C10.2348 23.7636 8.03882 23.7244 7.05845 23.5284L8.82311 21.7637V19.999H7.05845Z" fill="#CAD5E1"/>
<path d="M22.2033 8.33396L23.9679 6.56931C24.3601 7.3536 24.7914 9.27511 23.3797 10.6868C21.968 12.0986 20.4386 11.6672 19.8504 11.2751L15.7329 15.3926L13.38 13.0397L17.4975 8.92218C17.3014 8.53003 17.1446 7.39281 18.0857 5.98109C19.0269 4.56936 21.2229 4.60858 22.2033 4.80465L20.4386 6.56931V8.33396H22.2033Z" fill="#CAD5E1"/>
<rect x="8.84766" y="10.4062" width="3.75452" height="18.9339" rx="1.17644" transform="rotate(-45 8.84766 10.4062)" fill="#FF9950"/>
<rect x="3.38672" y="10.9326" width="2.35287" height="5.53579" rx="1.17644" transform="rotate(-45 3.38672 10.9326)" fill="#575D68"/>
<rect x="4.70703" y="11.0762" width="3.4218" height="3.45384" transform="rotate(-45 4.70703 11.0762)" fill="#575D68"/>
<rect x="5.88281" y="8.72266" width="5.44399" height="5.53579" rx="1.17644" transform="rotate(-45 5.88281 8.72266)" fill="#575D68"/>
<path d="M9.41309 5.17669L7.64844 6.94132L8.82487 10L11.766 7.05894C12.8693 5.95563 11.9031 6.92181 14.2048 7.0462C14.404 7.05696 14.5107 6.82568 14.3781 6.67667C11.648 3.60937 10.1676 4.6108 9.41309 5.17669Z" fill="#575D68"/>
</svg>
