<svg width="56" height="56" viewBox="0 0 56 56" fill="none" xmlns="http://www.w3.org/2000/svg">
<path d="M14.1169 39.9981L10.5876 43.5274C9.8033 41.9588 8.94058 38.1158 11.764 35.2923C14.5875 32.4689 17.6462 33.3316 18.8226 34.1159L27.0577 25.8809L31.7635 30.5866L23.5284 38.8217C23.9205 39.6059 24.2343 41.8804 22.352 44.7038C20.4697 47.5273 16.0776 47.4489 14.1169 47.0567L17.6462 43.5274V39.9981H14.1169Z" fill="#CAD5E1"/>
<path d="M44.4104 16.6689L47.9397 13.1396C48.724 14.7082 49.5868 18.5512 46.7633 21.3746C43.9399 24.1981 40.8811 23.3354 39.7047 22.5511L31.4696 30.7861L26.7639 26.0804L34.9989 17.8453C34.6068 17.061 34.2931 14.7866 36.1754 11.9632C38.0577 9.1397 42.4497 9.21813 44.4104 9.61028L40.8811 13.1396V16.6689H44.4104Z" fill="#CAD5E1"/>
<rect x="17.6914" y="20.8125" width="7.50903" height="37.8678" rx="2.35287" transform="rotate(-45 17.6914 20.8125)" fill="#FF9950"/>
<rect x="6.77344" y="21.8652" width="4.70575" height="11.0716" rx="2.35287" transform="rotate(-45 6.77344 21.8652)" fill="#575D68"/>
<rect x="9.41016" y="22.1514" width="6.8436" height="6.90768" transform="rotate(-45 9.41016 22.1514)" fill="#575D68"/>
<rect x="11.7656" y="17.4443" width="10.888" height="11.0716" rx="2.35287" transform="rotate(-45 11.7656 17.4443)" fill="#575D68"/>
<path d="M18.8223 10.3534L15.293 13.8826L17.6458 20.0001L23.528 14.1179C25.7346 11.9113 23.8023 13.8436 28.4057 14.0924C28.8041 14.1139 29.0175 13.6514 28.7522 13.3533C23.2921 7.21874 20.3313 9.22159 18.8223 10.3534Z" fill="#575D68"/>
</svg>
