<svg width="48" height="48" viewBox="0 0 48 48" fill="none" xmlns="http://www.w3.org/2000/svg">
<path d="M12.1008 34.2841L9.07564 37.3092C8.40339 35.9647 7.66391 32.6707 10.084 30.2506C12.5041 27.8305 15.1259 28.57 16.1343 29.2422L23.1929 22.1836L27.2264 26.2171L20.1678 33.2757C20.5039 33.948 20.7728 35.8975 19.1594 38.3176C17.546 40.7377 13.7814 40.6705 12.1008 40.3343L15.1259 37.3092V34.2841H12.1008Z" fill="#CAD5E1"/>
<path d="M38.0633 14.2872L41.0884 11.2621C41.7607 12.6066 42.5001 15.9006 40.08 18.3207C37.66 20.7408 35.0382 20.0013 34.0298 19.3291L26.9712 26.3877L22.9377 22.3542L29.9963 15.2956C29.6602 14.6233 29.3913 12.6738 31.0047 10.2537C32.6181 7.83361 36.3827 7.90084 38.0633 8.23696L35.0382 11.2621V14.2872H38.0633Z" fill="#CAD5E1"/>
<rect x="15.1641" y="17.8389" width="6.43631" height="32.4581" rx="2.01675" transform="rotate(-45 15.1641 17.8389)" fill="#FF9950"/>
<rect x="5.80469" y="18.7412" width="4.0335" height="9.48992" rx="2.01675" transform="rotate(-45 5.80469 18.7412)" fill="#575D68"/>
<rect x="8.06641" y="18.9873" width="5.86594" height="5.92087" transform="rotate(-45 8.06641 18.9873)" fill="#575D68"/>
<rect x="10.082" y="14.9521" width="9.33256" height="9.48992" rx="2.01675" transform="rotate(-45 10.082 14.9521)" fill="#575D68"/>
<path d="M16.1345 8.87474L13.1094 11.8998L15.1261 17.1433L20.168 12.1015C22.0594 10.2101 20.4031 11.8664 24.3488 12.0796C24.6903 12.0981 24.8732 11.7016 24.6459 11.4461C19.9658 6.18791 17.428 7.90464 16.1345 8.87474Z" fill="#575D68"/>
</svg>
