<svg width="22" height="22" viewBox="0 0 22 22" fill="none" xmlns="http://www.w3.org/2000/svg">
<path fill-rule="evenodd" clip-rule="evenodd" d="M13.8536 1.48251C12.3295 0.171193 10.0757 0.171193 8.55155 1.48251C7.89321 2.04894 7.07076 2.38961 6.20471 2.45461C4.19976 2.60508 2.60605 4.19878 2.45558 6.20374C2.39059 7.06978 2.04992 7.89224 1.48349 8.55058C0.17217 10.0747 0.17217 12.3285 1.48349 13.8527C2.04992 14.511 2.39059 15.3334 2.45558 16.1995C2.60605 18.2044 4.19976 19.7982 6.20471 19.9486C7.07076 20.0136 7.89321 20.3543 8.55155 20.9207C10.0757 22.232 12.3295 22.232 13.8536 20.9207C14.512 20.3543 15.3344 20.0136 16.2005 19.9486C18.2054 19.7982 19.7991 18.2044 19.9496 16.1995C20.0146 15.3334 20.3553 14.511 20.9217 13.8527C22.233 12.3285 22.233 10.0747 20.9217 8.55058C20.3553 7.89224 20.0146 7.06978 19.9496 6.20374C19.7991 4.19878 18.2054 2.60508 16.2005 2.45461C15.3344 2.38961 14.512 2.04894 13.8536 1.48251ZM16.5388 8.95421C16.9545 8.49239 16.917 7.78106 16.4552 7.36542C15.9934 6.94978 15.2821 6.98721 14.8664 7.44904L10.1909 12.6441L7.42283 10.3374C6.94551 9.93962 6.23613 10.0041 5.83837 10.4814C5.44061 10.9587 5.5051 11.6681 5.98241 12.0659L9.36056 14.881C9.94894 15.3713 10.8197 15.3088 11.332 14.7396L16.5388 8.95421Z" fill="url(#paint0_linear_10775_22660)"/>
<defs>
<linearGradient id="paint0_linear_10775_22660" x1="0.5" y1="11.2016" x2="21.9052" y2="11.2016" gradientUnits="userSpaceOnUse">
<stop stop-color="#10B981"/>
<stop offset="1" stop-color="#A3E635"/>
</linearGradient>
</defs>
</svg>
