<?xml version="1.0" standalone="no"?>
<!DOCTYPE svg PUBLIC "-//W3C//DTD SVG 20010904//EN"
 "http://www.w3.org/TR/2001/REC-SVG-20010904/DTD/svg10.dtd">
<svg version="1.0" xmlns="http://www.w3.org/2000/svg"
 width="20.000000pt" height="20.000000pt" viewBox="0 0 200.000000 200.000000"
 preserveAspectRatio="xMidYMid meet">

<g transform="translate(0.000000,200.000000) scale(0.100000,-0.100000)"
fill="current" stroke="none">
<path d="M733 1719 c-79 -25 -161 -97 -200 -177 -24 -49 -28 -69 -28 -142 0
-72 4 -93 27 -140 15 -30 39 -70 54 -87 23 -29 24 -33 8 -33 -10 0 -60 -21
-112 -46 -78 -38 -109 -60 -176 -127 -87 -87 -124 -149 -151 -253 -21 -81 -19
-130 5 -154 19 -19 33 -20 498 -20 527 0 522 -1 522 60 0 60 0 60 -478 60
l-434 0 7 28 c29 120 134 239 267 302 255 120 552 79 747 -105 77 -73 109 -82
137 -40 25 38 12 65 -66 138 -50 48 -96 79 -163 112 -51 25 -101 45 -111 45
-16 0 -15 4 8 33 15 17 39 57 54 87 23 47 27 68 27 140 0 73 -4 93 -28 142
-40 82 -120 152 -204 178 -80 25 -130 25 -210 -1z m172 -110 c56 -16 129 -91
145 -149 38 -139 -68 -280 -210 -280 -70 0 -147 43 -184 103 -56 91 -44 196
33 271 61 60 133 78 216 55z"/>
<path d="M1520 800 c-35 -35 -25 -60 53 -132 l72 -68 -196 0 c-177 0 -197 -2
-212 -18 -22 -24 -21 -65 1 -85 16 -15 46 -17 213 -17 l194 -1 -72 -65 c-79
-71 -92 -104 -55 -137 35 -32 61 -21 160 70 214 196 211 189 134 262 -123 118
-234 211 -252 211 -11 0 -29 -9 -40 -20z"/>
</g>
</svg>
