<svg width="10" height="12" viewBox="0 0 10 12" fill="none" xmlns="http://www.w3.org/2000/svg">
<path fill-rule="evenodd" clip-rule="evenodd" d="M7.45 1.785H7.5C8.88071 1.785 10 2.90429 10 4.285V8.785C10 10.1657 8.88071 11.285 7.5 11.285H2.5C1.83696 11.285 1.20107 11.0216 0.732233 10.5528C0.263392 10.0839 0 9.44804 0 8.785V4.285C0 2.90429 1.11929 1.785 2.5 1.785H2.55V0.875C2.55 0.667893 2.71789 0.5 2.925 0.5C3.13211 0.5 3.3 0.667893 3.3 0.875V1.785H6.7V0.875C6.7 0.667893 6.86789 0.5 7.075 0.5C7.28211 0.5 7.45 0.667893 7.45 0.875V1.785ZM2.75 4.83H7.25C7.45711 4.83 7.625 4.66211 7.625 4.455C7.625 4.24789 7.45711 4.08 7.25 4.08H2.75C2.54289 4.08 2.375 4.24789 2.375 4.455C2.375 4.66211 2.54289 4.83 2.75 4.83Z" fill="#64748B"/>
</svg>
