<svg width="30" height="30" viewBox="0 0 30 30" fill="none" xmlns="http://www.w3.org/2000/svg">
<path d="M6.15372 16.1689C7.06678 21.0644 11.7756 24.2929 16.6711 23.3798C21.5666 22.4668 24.7951 17.758 23.882 12.8624C22.9689 7.96692 18.2601 4.73849 13.3646 5.65155C8.4691 6.5646 5.24067 11.2734 6.15372 16.1689Z" fill="#64748B"/>
<circle cx="2.25425" cy="2.25425" r="2.25425" transform="matrix(-0.983048 0.183347 0.183347 0.983048 7.97656 12.9326)" fill="#64748B"/>
<ellipse cx="2.25425" cy="2.25425" rx="2.25425" ry="2.25425" transform="matrix(-0.983048 0.183347 0.183347 0.983048 25.7422 12.9326)" fill="#64748B"/>
<path fill-rule="evenodd" clip-rule="evenodd" d="M5.97999 12.2481C7.32632 13.1748 9.02693 13.5601 10.7311 13.1775C12.4597 12.7893 13.8473 11.6883 14.6638 10.2448C15.9679 12.543 18.6283 13.8276 21.2975 13.2283C22.2573 13.0127 23.112 12.5774 23.8221 11.9858C23.7955 11.8317 23.7649 11.6775 23.7302 11.5232C22.6193 6.57595 17.7798 3.44993 12.9208 4.54101C9.13381 5.39139 6.45268 8.55249 5.97999 12.2481Z" fill="#1E293B"/>
<path fill-rule="evenodd" clip-rule="evenodd" d="M21.4983 7.20649L8.35545 7.08212C8.66706 4.54038 11.5183 2.56956 14.9699 2.60223C18.4215 2.63489 21.2349 4.65931 21.4983 7.20649Z" fill="#475569"/>
<rect x="6.16406" y="7.0625" width="17.525" height="2.19062" rx="0.730207" transform="rotate(0.542194 6.16406 7.0625)" fill="#475569"/>
<path d="M12.7605 4.20615C12.772 2.99636 13.762 2.02491 14.9718 2.03635C16.1816 2.0478 17.153 3.03781 17.1416 4.24761L17.1139 7.16831L12.7329 7.12685L12.7605 4.20615Z" fill="#334155"/>
</svg>
