<svg width="66" height="66" viewBox="0 0 66 66" fill="none" xmlns="http://www.w3.org/2000/svg">
<circle cx="32" cy="32" r="32" fill="#334155"/>
<circle cx="32" cy="32" r="31" stroke="#F8FAFC" stroke-opacity="0.1" stroke-width="2"/>
<path d="M15.6512 38.2303C17.3355 47.2611 26.0218 53.2165 35.0525 51.5322C44.0833 49.8479 50.0387 41.1616 48.3544 32.1309C46.6701 23.1002 37.9838 17.1447 28.9531 18.829C19.9224 20.5133 13.9669 29.1996 15.6512 38.2303Z" fill="#64748B"/>
<circle cx="4.15839" cy="4.15839" r="4.15839" transform="matrix(-0.983048 0.183347 0.183347 0.983048 19.0078 32.2676)" fill="#64748B"/>
<ellipse cx="4.15839" cy="4.15839" rx="4.15839" ry="4.15839" transform="matrix(-0.983048 0.183347 0.183347 0.983048 51.7812 32.2676)" fill="#64748B"/>
<path fill-rule="evenodd" clip-rule="evenodd" d="M15.3408 31.0184C17.824 32.7268 20.9602 33.437 24.1029 32.7313C27.2962 32.0143 29.8584 29.9786 31.3638 27.3102C33.7694 31.5496 38.6771 33.9193 43.6009 32.8137C45.37 32.4164 46.9454 31.6144 48.2548 30.5244C48.2057 30.2407 48.1493 29.9568 48.0855 29.6727C46.0363 20.5466 37.1088 14.7801 28.1456 16.7928C21.1568 18.3621 16.2097 24.1975 15.3408 31.0184Z" fill="#1E293B"/>
<path fill-rule="evenodd" clip-rule="evenodd" d="M43.953 21.7017L19.7098 21.4722C20.2885 16.7865 25.5463 13.1541 31.9107 13.2143C38.275 13.2745 43.4632 17.0058 43.953 21.7017Z" fill="#475569"/>
<rect x="15.6719" y="21.4355" width="32.3282" height="4.04102" rx="1.32284" transform="rotate(0.542194 15.6719 21.4355)" fill="#475569"/>
<path d="M27.8446 16.1658C27.8657 13.9341 29.692 12.1421 31.9237 12.1632C34.1553 12.1844 35.9474 14.0106 35.9263 16.2423L35.8753 21.6301L27.7936 21.5536L27.8446 16.1658Z" fill="#334155"/>
<circle cx="55" cy="55" r="10" fill="#334155" stroke="#0F172A" stroke-width="2"/>
<path d="M55.0138 51.1895C55.1184 50.964 55.3855 50.8668 55.6106 50.9723L57.5474 51.8803C57.7724 51.9858 57.8701 52.2541 57.7655 52.4795L55.0842 58.2603C55.0333 58.3701 54.9404 58.4546 54.8265 58.4947L53.4176 58.9904C53.1872 59.0714 52.9339 58.9527 52.8476 58.7231L52.3197 57.3195C52.277 57.2059 52.2816 57.0801 52.3325 56.9703L55.0138 51.1895Z" fill="#64748B"/>
<path d="M53.125 51.3809L58.4887 53.8973" stroke="#334155" stroke-width="0.5625"/>
</svg>
